<mxfile host="65bd71144e">
    <diagram id="cXQdyn4kzb7VQI7HOlGj" name="Page-1">
        <mxGraphModel dx="493" dy="376" grid="0" gridSize="10" guides="1" tooltips="1" connect="1" arrows="1" fold="1" page="1" pageScale="1" pageWidth="850" pageHeight="1100" math="0" shadow="0">
            <root>
                <mxCell id="0"/>
                <mxCell id="1" parent="0"/>
                <mxCell id="2" value="" style="shape=image;verticalLabelPosition=bottom;verticalAlign=top;imageAspect=0;image=https://cdn.discordapp.com/attachments/878496221998772225/1061518419993821224/magicut_1673156061437.png" vertex="1" parent="1">
                    <mxGeometry x="379" y="539.0000000000001" width="102" height="101" as="geometry"/>
                </mxCell>
                <mxCell id="7" value="" style="shape=image;verticalLabelPosition=bottom;verticalAlign=top;imageAspect=0;image=https://cdn.discordapp.com/attachments/878496221998772225/1061518419993821224/magicut_1673156061437.png" vertex="1" parent="1">
                    <mxGeometry x="339" y="469.0000000000001" width="102" height="101" as="geometry"/>
                </mxCell>
                <mxCell id="8" value="" style="shape=image;verticalLabelPosition=bottom;verticalAlign=top;imageAspect=0;image=https://cdn.discordapp.com/attachments/878496221998772225/1061518419993821224/magicut_1673156061437.png" vertex="1" parent="1">
                    <mxGeometry x="298" y="539.0000000000001" width="102" height="101" as="geometry"/>
                </mxCell>
                <mxCell id="9" value="" style="shape=image;verticalLabelPosition=bottom;verticalAlign=top;imageAspect=0;image=https://cdn.discordapp.com/attachments/878496221998772225/1061518419993821224/magicut_1673156061437.png" vertex="1" parent="1">
                    <mxGeometry x="339" y="609" width="102" height="101" as="geometry"/>
                </mxCell>
            </root>
        </mxGraphModel>
    </diagram>
</mxfile>